<svg width="188" height="188" viewBox="0 0 188 188" fill="none" xmlns="http://www.w3.org/2000/svg">
<path d="M76.2178 62.7124C86.4808 55.0959 100.52 55.0959 110.783 62.7124L126.88 74.6587C131.016 77.7285 136.031 79.3861 141.183 79.3862H173V124.386L157 154.5L133.25 169.386L94 177.5L53.75 169.386L27.0479 154.5L14 124.386V79.3862H45.8174C50.9686 79.3862 55.9835 77.7285 60.1201 74.6587L76.2178 62.7124ZM160.947 116.659C148.262 108.356 130.517 111.038 119.596 123.526C110.176 134.298 108.664 149.13 114.794 160.362C114.994 160.728 115.406 160.923 115.816 160.846C126.472 158.845 138.328 151.795 147.996 140.706C154.335 133.434 158.832 125.459 161.335 117.769C161.47 117.354 161.313 116.898 160.947 116.659ZM68.7871 123.174C57.8661 110.687 40.121 108.004 27.4355 116.307C27.0703 116.547 26.9127 117.002 27.0479 117.417C29.5508 125.108 34.0486 133.083 40.3877 140.354C50.0558 151.444 61.911 158.494 72.5664 160.496C72.9765 160.572 73.3888 160.377 73.5889 160.011C79.7188 148.78 78.2076 133.947 68.7871 123.174ZM94 79.9995C86.268 79.9995 80 86.2676 80 93.9995C80 101.732 86.268 108 94 108C101.732 108 108 101.732 108 93.9995C108 86.2676 101.732 79.9995 94 79.9995Z" fill="#0086A1"/>
<circle cx="94" cy="94" r="86.5" stroke="#00B7DC" stroke-width="15"/>
</svg>
