<svg width="46" height="46" viewBox="0 0 46 46" fill="none" xmlns="http://www.w3.org/2000/svg">
<rect x="2.24414" y="12" width="1.68293" height="6" fill="#00849F"/>
<rect width="1.68293" height="6" transform="matrix(-1 0 0 1 43.7559 12)" fill="#00849F"/>
<rect y="9" width="4.4878" height="4" rx="1" fill="#00849F"/>
<rect width="4.4878" height="4" rx="1" transform="matrix(-1 0 0 1 46 9)" fill="#00849F"/>
<path d="M23 0V42H16.5391C16.196 42.0001 15.8765 42.1758 15.6934 42.4658L13.7578 45.5342C13.5746 45.8242 13.2552 46 12.9121 46H7.56055C3.69477 45.9997 0.560547 42.8658 0.560547 39V20C0.560547 17.9524 1.87834 15.2342 3.58789 14.3174L3.60156 14.3096C4.26488 13.9539 4.98462 13.5677 5.32129 12.8955L10.1211 3.3125C11.1383 1.28206 13.2153 0 15.4863 0H23ZM3.5625 19.0244C3.28098 18.5003 2.77792 26.6479 6.36816 31.0479C9.95808 35.4471 10.854 27.5006 8.6123 25.0479L3.5625 19.0244Z" fill="#00B7DC"/>
<path d="M30.5137 0C32.7847 0 34.8618 1.28205 35.8789 3.3125L40.6787 12.8955C41.0154 13.5677 41.7351 13.9539 42.3984 14.3096L42.4121 14.3174C44.1217 15.2342 45.4385 17.9524 45.4385 20V39C45.4385 42.866 42.3045 46 38.4385 46H33.0879C32.7448 46 32.4254 45.8242 32.2422 45.5342L30.3066 42.4658C30.1235 42.1758 29.804 42.0001 29.4609 42H23V0H30.5137ZM40.125 31.0479C43.7152 26.6479 43.2122 18.5003 42.9307 19.0244L37.8809 25.0479C35.6391 27.5006 36.5351 35.4472 40.125 31.0479Z" fill="#00B7DC"/>
<path d="M13.2857 27.4167C13.3264 27.1761 13.5347 27 13.7787 27H32.2212C32.4652 27 32.6735 27.1761 32.7142 27.4166L33.5769 32.5157C33.6224 32.7846 33.4441 33.0403 33.1762 33.0906L27.6106 34.1349C24.5634 34.7066 21.4365 34.7066 18.3893 34.1348L12.8244 33.0906C12.5565 33.0403 12.3782 32.7846 12.4237 32.5158L13.2857 27.4167Z" fill="#00849F"/>
<path d="M13.38 2.16281C13.4314 2.06284 13.5344 2 13.6468 2H32.3538C32.4662 2 32.5692 2.06284 32.6206 2.16281L38.4828 13.5628C38.5855 13.7625 38.4405 14 38.216 14H7.78458C7.56008 14 7.41512 13.7625 7.51779 13.5628L13.38 2.16281Z" fill="#00849F"/>
</svg>
