<svg width="45" height="14" viewBox="0 0 45 14" fill="none" xmlns="http://www.w3.org/2000/svg">
<circle cx="7.78748" cy="10.3461" r="3.55701" fill="#00839D"/>
<circle cx="35.1508" cy="10.3461" r="3.55701" fill="#00839D"/>
<path d="M44.4528 3.50681C43.6319 4.87488 45 5.96935 45 7.06382V8.43189C45 9.79996 43.6319 10.6208 42.8111 10.8944C41.9902 11.1681 40.0749 10.8944 39.5277 10.3472C38.9804 9.79997 39.2541 5.96935 35.1498 5.96935C31.0456 5.96935 31.0455 10.0736 31.0456 10.6208C31.0456 10.8944 31.0456 11.1681 30.772 11.4417C30.4983 11.7153 12.166 12.2625 12.166 11.168C12.166 10.0736 11.6188 5.69573 7.78821 5.69573C3.95758 5.69573 3.41028 10.1857 3.41032 11.0066C3.41034 11.6184 2.58944 11.5538 1.76862 11.5538C0.400541 11.5538 0.400548 8.9791 0.12696 7.61104C-0.0427153 6.76259 -0.420272 6.51658 2.04227 5.1485C4.50482 3.78042 8.88267 3.78042 12.1661 3.5068C15.4495 3.23318 16.5439 2.41235 19.2801 1.04427C22.0162 -0.323813 27.4886 -0.0502264 30.2247 0.223419C32.9473 0.495707 36.7915 1.86512 39.2541 2.95958C41.7166 4.05404 43.3864 3.13264 43.9055 2.95958C44.7264 2.68595 44.7676 2.98218 44.4528 3.50681Z" fill="#00B7DC"/>
</svg>
