<svg width="70" height="22" viewBox="0 0 70 22" fill="none" xmlns="http://www.w3.org/2000/svg">
<circle cx="12.1152" cy="16.0956" r="5.53313" fill="#00839D"/>
<circle cx="54.6777" cy="16.0956" r="5.53313" fill="#00839D"/>
<path d="M69.1488 5.45504C67.8719 7.58315 70 9.28565 70 10.9882V13.1163C70 15.2444 67.8719 16.5213 66.595 16.9469C65.3181 17.3725 62.3387 16.9469 61.4875 16.0956C60.6362 15.2444 61.0619 9.28565 54.6775 9.28565C48.2931 9.28565 48.2931 15.67 48.2931 16.5213C48.2931 16.9469 48.2931 17.3725 47.8675 17.7981C47.4419 18.2238 18.9249 19.075 18.9249 17.3725C18.9249 15.67 18.0737 8.86002 12.115 8.86002C6.15624 8.86002 5.30489 15.8444 5.30494 17.1213C5.30498 18.0731 4.02801 17.9726 2.75119 17.9726C0.623064 17.9726 0.623075 13.9675 0.197494 11.8394C-0.0664461 10.5196 -0.653756 10.1369 3.17687 8.00877C7.00749 5.88065 13.8175 5.88065 18.925 5.45502C24.0325 5.0294 25.735 3.75254 29.9912 1.62442C34.2475 -0.503709 42.76 -0.07813 47.0162 0.347541C51.2514 0.771099 57.2312 2.90129 61.0619 4.60379C64.8925 6.30629 67.4899 4.87299 68.2975 4.60379C69.5744 4.17815 69.6384 4.63895 69.1488 5.45504Z" fill="#00B7DC"/>
</svg>
